<?xml version="1.0" standalone="no"?>
<!DOCTYPE svg PUBLIC "-//W3C//DTD SVG 20010904//EN"
 "http://www.w3.org/TR/2001/REC-SVG-20010904/DTD/svg10.dtd">
<svg version="1.0" xmlns="http://www.w3.org/2000/svg"
 width="3840.000000pt" height="2160.000000pt" viewBox="0 0 3840.000000 2160.000000"
 preserveAspectRatio="xMidYMid meet">

<g transform="translate(0.000000,2160.000000) scale(0.100000,-0.100000)"
fill="#000000" stroke="none">
<path d="M0 10800 l0 -10800 19200 0 19200 0 0 10800 0 10800 -19200 0 -19200
0 0 -10800z m11537 8754 c37 -15 109 -37 158 -50 83 -21 94 -27 135 -72 56
-60 151 -233 180 -327 30 -99 36 -210 16 -322 -24 -141 -107 -345 -207 -514
-59 -99 -249 -471 -249 -486 0 -5 18 -39 40 -76 45 -75 48 -82 21 -66 -22 15
-51 5 -51 -16 0 -9 22 -40 49 -68 26 -29 54 -63 61 -76 10 -19 14 -21 21 -10
10 16 12 8 9 -38 -2 -35 19 -103 31 -103 4 0 11 10 14 21 6 17 9 19 16 8 5 -8
4 -18 -1 -23 -15 -15 -12 -29 4 -23 8 3 17 0 19 -8 3 -7 -3 -15 -14 -18 -18
-5 -19 -8 -7 -26 7 -12 18 -19 25 -17 6 3 14 -2 17 -10 5 -12 1 -14 -15 -9
-18 6 -20 5 -10 -14 7 -12 19 -21 28 -21 13 0 15 -16 11 -122 -3 -106 -8 -131
-30 -179 -45 -98 -139 -180 -203 -178 -13 1 -10 4 11 10 34 10 66 64 58 97 -5
16 -11 18 -36 13 -40 -8 -57 -34 -40 -61 11 -19 10 -20 -29 -20 -26 0 -52 -8
-72 -22 -22 -15 -28 -17 -18 -5 20 25 -9 23 -42 -3 -38 -30 -45 -24 -12 10 15
16 32 27 37 24 18 -11 49 9 66 44 9 20 23 37 31 37 21 0 25 24 5 32 -11 4 -24
-2 -37 -18 -16 -19 -19 -20 -13 -5 7 20 7 20 -15 0 -22 -19 -22 -19 -10 3 17
32 14 53 -8 53 -23 0 -36 -16 -20 -25 7 -5 1 -17 -16 -36 -20 -20 -26 -34 -22
-51 5 -16 -1 -30 -20 -50 -36 -38 -51 -36 -19 3 28 33 33 49 15 49 -6 0 -9 6
-6 13 3 8 -3 33 -14 57 -10 23 -19 48 -19 55 0 14 25 27 34 18 10 -10 7 -35
-3 -28 -5 3 -12 1 -16 -5 -11 -17 26 -24 42 -7 14 13 13 18 -3 45 -10 17 -22
28 -28 24 -6 -4 -13 -7 -16 -8 -47 -9 -51 -38 -14 -94 26 -39 26 -41 9 -60
-10 -11 -24 -20 -32 -20 -7 0 -13 -5 -13 -11 0 -6 9 -9 20 -6 15 4 20 0 20
-15 0 -18 -2 -18 -22 -4 -27 19 -65 21 -71 4 -2 -9 -24 -13 -64 -13 -50 1 -70
6 -109 31 -159 98 -191 329 -92 669 44 151 62 203 100 287 l39 87 -51 91 c-28
51 -55 99 -59 109 -37 71 -72 138 -113 211 -126 226 -204 420 -220 549 -14
118 -4 283 23 363 36 106 121 223 198 270 18 12 52 41 74 65 52 56 86 70 227
93 169 27 235 25 317 -6z m2996 -1085 c154 -42 187 -295 51 -388 -52 -36 -166
-42 -228 -11 -113 54 -143 249 -53 346 52 57 142 78 230 53z m1735 0 l50 -10
-5 -42 c-3 -23 -7 -44 -9 -46 -2 -2 -17 2 -35 8 -18 6 -51 11 -75 11 -104 0
-162 -136 -90 -213 33 -35 86 -48 149 -36 28 5 51 8 53 6 1 -1 4 -20 6 -41 3
-35 0 -41 -22 -47 -39 -11 -141 -10 -185 2 -113 31 -172 135 -145 255 29 127
150 187 308 153z m-3613 -16 c-4 -10 -12 -30 -17 -45 -10 -27 -12 -28 -89 -28
l-79 0 0 -40 0 -40 60 0 c67 0 71 -5 46 -65 -14 -33 -18 -35 -60 -35 l-46 0 0
-70 0 -70 -65 0 -65 0 0 205 0 205 161 0 c150 0 161 -1 154 -17z m175 -188 l0
-205 -70 0 -70 0 0 205 0 205 70 0 70 0 0 -205z m394 183 c-21 -69 -17 -67
-101 -70 l-78 -3 -3 -37 -3 -38 65 0 c36 0 66 -2 66 -4 0 -2 -9 -25 -20 -50
-19 -45 -20 -46 -65 -46 l-45 0 0 -70 0 -70 -65 0 -65 0 0 205 0 205 161 0
160 0 -7 -22z m231 5 c15 -38 77 -209 85 -233 4 -14 19 -55 33 -92 l26 -68
-68 0 c-65 0 -69 1 -75 25 -6 24 -10 25 -76 25 -66 0 -71 -2 -80 -25 -9 -23
-14 -25 -76 -25 -59 0 -65 2 -59 18 5 13 65 176 140 380 3 8 27 12 74 12 56 0
70 -3 76 -17z m352 -121 c12 -73 23 -138 25 -144 3 -7 14 46 27 118 31 182 20
165 104 162 l71 -3 26 -145 c29 -158 28 -159 55 10 25 153 17 140 80 140 30 0
55 -2 55 -5 0 -8 -80 -367 -86 -387 -4 -15 -18 -18 -78 -18 l-73 0 -22 123
c-34 187 -34 186 -60 23 l-24 -147 -76 3 -76 3 -37 165 c-20 91 -40 182 -43
203 l-7 38 58 -3 58 -3 23 -133z m1173 123 c58 -30 75 -86 45 -145 -8 -16 -25
-34 -36 -40 -18 -10 -19 -13 -6 -28 8 -9 28 -54 45 -100 l30 -83 -60 3 -60 3
-24 65 c-24 66 -44 90 -76 90 -16 0 -18 -9 -18 -80 l0 -80 -60 0 -60 0 0 205
0 205 125 0 c92 0 134 -4 155 -15z m230 -150 l0 -165 85 0 85 0 0 -40 0 -40
-140 0 -140 0 0 205 0 205 55 0 55 0 0 -165z m472 155 c45 -13 93 -52 115 -94
22 -41 22 -159 1 -201 -43 -82 -100 -105 -258 -105 l-120 0 0 205 0 205 113 0
c61 0 129 -5 149 -10z m778 -124 c0 -74 4 -146 10 -161 21 -55 99 -51 120 8 5
16 10 88 10 158 l0 129 55 0 55 0 0 -150 c0 -170 -8 -203 -61 -241 -30 -21
-45 -24 -119 -24 -96 0 -127 13 -160 68 -18 28 -20 51 -20 190 l0 157 55 0 55
0 0 -134z m532 124 c57 -16 88 -60 88 -124 0 -87 -56 -136 -155 -136 l-45 0 0
-70 0 -70 -60 0 -60 0 0 205 0 205 98 0 c53 0 114 -5 134 -10z m-5979 -499
c22 -38 23 -61 1 -39 -15 15 -19 15 -48 -3 -34 -21 -46 -24 -46 -10 0 5 16 18
35 30 23 14 33 25 29 36 -10 26 11 16 29 -14z m1910 -43 c65 -19 122 -82 137
-148 21 -97 -14 -176 -105 -236 l-55 -37 97 -52 c54 -29 106 -64 117 -78 10
-14 21 -49 24 -78 l5 -52 -189 98 c-295 153 -348 197 -374 306 -28 117 33 236
142 276 44 15 151 16 201 1z m815 -60 l-3 -63 74 -3 73 -3 -7 -37 c-4 -20 -9
-40 -11 -44 -3 -5 -34 -8 -70 -8 l-64 0 0 -74 c0 -58 4 -79 19 -97 19 -24 21
-24 245 -27 l226 -3 0 68 c0 95 14 135 59 176 51 46 93 57 219 57 l102 0 0
-195 0 -195 -55 0 -54 0 -3 77 -3 77 -37 -60 c-60 -98 -49 -96 -430 -92 l-328
3 -32 33 c-33 32 -33 33 -36 142 l-4 110 -40 0 c-40 0 -40 0 -34 31 3 17 6 37
6 45 0 7 14 14 33 16 27 3 32 7 35 33 2 16 13 36 25 45 28 20 80 49 90 50 5 0
7 -28 5 -62z m1556 24 c98 -57 99 -195 3 -277 -22 -19 -76 -50 -120 -67 l-80
-33 147 -3 146 -3 -6 -27 c-15 -67 3 -62 -205 -62 l-190 0 3 42 c3 40 6 43 76
86 40 24 95 65 123 90 41 38 51 55 56 89 12 91 -74 117 -224 69 -20 -6 -21 -5
-14 22 19 65 38 80 121 95 42 8 134 -4 164 -21z m484 2 c209 -87 154 -413 -80
-475 -40 -11 -49 -10 -99 13 -100 47 -167 137 -176 237 -11 121 53 210 174
241 48 12 133 4 181 -16z m452 -2 c49 -24 83 -92 76 -151 -11 -86 -73 -146
-210 -202 l-59 -24 141 -3 c156 -3 156 -3 132 -66 l-10 -26 -185 0 c-102 0
-185 4 -185 9 0 5 -3 22 -6 38 -5 27 -1 32 78 80 114 70 165 116 179 161 28
95 -54 137 -186 97 -27 -8 -50 -13 -52 -12 -7 8 20 76 36 91 41 37 182 41 251
8z m429 -1 c55 -28 76 -63 76 -129 0 -99 -56 -160 -200 -219 l-69 -28 142 -3
c153 -3 148 0 136 -61 l-6 -31 -189 0 c-104 0 -189 4 -189 9 0 5 -3 22 -6 38
-5 28 -2 32 64 71 158 94 214 159 196 224 -17 57 -89 74 -190 43 -27 -8 -50
-15 -52 -15 -4 0 6 36 20 72 21 55 183 73 267 29z m-5602 3 c3 -9 -4 -26 -18
-40 l-24 -26 40 4 c31 2 40 -1 43 -14 2 -12 -10 -24 -42 -40 -25 -12 -49 -18
-53 -14 -5 5 -3 11 3 13 6 2 20 10 30 18 17 13 16 14 -18 8 -44 -7 -47 3 -16
42 l21 27 -30 -16 c-48 -24 -48 -5 -1 25 51 33 57 34 65 13z m-8592 -167 c15
-21 13 -24 -34 -69 -27 -27 -53 -48 -58 -48 -5 0 -31 23 -58 51 l-50 50 53 50
52 51 40 -32 c22 -18 47 -41 55 -53z m11035 -112 l0 -195 -60 0 -60 0 0 78 -1
77 -31 -58 c-76 -141 -199 -141 -228 0 -21 101 8 209 67 251 48 33 84 40 201
41 l112 1 0 -195z m1460 135 c0 -58 -1 -60 -26 -60 -55 0 -124 -110 -124 -199
0 -63 -8 -71 -66 -71 l-54 0 0 153 c0 83 -3 169 -6 190 l-7 37 62 0 61 0 0
-72 0 -73 24 50 c32 67 71 102 119 104 14 1 17 -8 17 -59z m-12730 -72 c31
-65 64 -89 128 -96 81 -7 151 39 171 116 6 23 13 27 49 30 40 3 42 2 42 -25 0
-39 -52 -126 -95 -159 -99 -75 -220 -71 -312 10 -49 43 -82 103 -83 149 0 25
3 27 38 27 35 0 38 -3 62 -52z m9451 -90 l22 -43 -34 26 c-37 29 -50 59 -25
59 9 0 25 -19 37 -42z m-3577 -9 c70 -25 134 -87 171 -162 l28 -58 -1 -335 c0
-358 -3 -377 -52 -449 -38 -55 -66 -79 -130 -112 l-55 -28 -256 0 -255 0 -68
34 c-70 36 -107 73 -147 151 -24 45 -24 46 -24 400 0 351 0 355 23 398 36 68
92 123 157 154 l60 28 247 0 c225 0 252 -2 302 -21z m-6229 -179 l49 -50 -25
-27 c-35 -38 -73 -72 -82 -73 -14 0 -97 83 -97 98 0 15 85 102 99 102 4 0 29
-22 56 -50z m-215 -45 c0 -60 84 -135 152 -135 77 0 148 53 163 120 6 28 10
30 52 30 l45 0 -7 -31 c-25 -112 -108 -192 -216 -206 -51 -7 -126 12 -174 45
-47 32 -93 103 -102 155 l-6 37 47 0 c34 0 46 -4 46 -15z m336 -438 c4 -4 7
-96 7 -204 l0 -198 -42 -3 c-47 -4 -44 -10 -41 101 1 43 -2 92 -5 109 l-7 31
-147 -146 c-83 -83 -157 -148 -171 -152 -39 -8 -54 8 -51 58 0 9 66 83 146
164 80 80 145 147 145 149 0 2 -51 5 -112 6 l-113 3 -3 39 c-2 24 2 42 10 48
15 9 374 5 384 -5z m9654 -105 c0 -5 -6 -17 -14 -27 -13 -18 -13 -17 -11 6 3
30 3 29 15 29 6 0 10 -4 10 -8z m-90 -81 c-8 -5 -28 -11 -45 -15 l-30 -6 25
15 c14 8 34 14 45 14 16 0 17 -1 5 -8z m3092 -1255 c202 -366 439 -712 670
-981 182 -210 504 -503 783 -713 l140 -105 -90 7 c-501 40 -875 186 -1156 453
-121 115 -172 183 -262 344 -202 363 -267 612 -312 1209 -8 113 -18 219 -21
235 -3 17 38 -53 91 -154 53 -101 123 -234 157 -295z m-10753 -1094 c68 -66
81 -83 81 -110 0 -28 -3 -32 -28 -32 -21 0 -49 22 -130 103 -56 56 -102 106
-102 110 0 4 22 7 49 7 48 0 52 -2 130 -78z m11846 -707 c94 -19 274 -48 400
-65 634 -85 975 -211 1252 -464 142 -129 326 -389 455 -643 144 -282 236 -514
545 -1368 130 -360 200 -508 286 -600 49 -53 73 -71 117 -86 l55 -18 -40 -1
c-36 0 -107 15 -170 35 -13 4 -8 -4 15 -24 55 -49 131 -74 230 -74 99 0 144
11 410 98 1100 357 2050 443 3135 284 286 -42 834 -161 1180 -255 307 -84 349
-94 423 -102 164 -18 224 2 767 261 565 268 805 348 1140 376 398 35 684 -20
936 -178 136 -86 304 -242 304 -284 0 -9 -25 -42 -56 -74 -280 -293 -467 -630
-701 -1263 -328 -889 -425 -1128 -586 -1440 -350 -678 -905 -1297 -1537 -1715
-181 -120 -347 -213 -620 -346 -349 -171 -577 -263 -1100 -444 -539 -187 -929
-351 -1023 -430 -18 -15 -32 -24 -32 -20 0 4 27 50 60 102 295 471 461 1109
435 1678 -16 368 -106 983 -180 1240 -41 139 -45 132 -15 -25 183 -960 129
-1817 -160 -2539 -52 -130 -95 -226 -131 -288 l-30 -53 -23 27 c-46 53 -106 2
-106 -92 l0 -46 37 25 c20 14 39 24 41 21 5 -5 -59 -95 -67 -95 -23 2 -49 41
-53 84 -10 85 -78 120 -78 41 0 -42 20 -84 66 -141 28 -35 31 -44 21 -58 -11
-16 -14 -14 -29 16 -11 24 -33 43 -76 66 -33 18 -64 32 -70 32 -16 0 -26 -128
-15 -182 5 -26 6 -45 1 -42 -17 11 -38 64 -52 134 -17 82 -29 100 -62 100 -34
0 -41 -38 -15 -88 11 -22 25 -43 31 -47 5 -3 10 -28 10 -54 0 -59 22 -90 70
-100 28 -5 40 -16 59 -50 44 -80 135 -100 207 -46 l31 24 44 -30 c24 -17 60
-39 81 -49 34 -18 36 -22 31 -59 -9 -64 24 -116 142 -225 79 -74 111 -111 134
-158 17 -34 31 -70 31 -81 0 -19 1 -19 20 -2 27 24 43 79 35 118 -12 55 -44
95 -125 157 -80 61 -96 84 -85 120 8 26 19 25 91 -4 46 -19 263 -98 331 -121
9 -3 8 -13 -5 -37 -21 -42 -27 -132 -13 -185 23 -85 112 -184 165 -183 18 1
16 3 -9 17 -76 40 -117 109 -118 202 0 90 52 186 85 153 6 -6 4 -20 -7 -43
-23 -44 -31 -149 -15 -189 14 -34 26 -38 35 -11 10 33 69 108 118 152 l48 42
107 -33 c184 -55 228 -88 258 -187 19 -63 18 -250 -2 -354 -62 -326 -306 -774
-551 -1010 -81 -78 -160 -139 -181 -139 -42 0 -370 233 -607 430 -371 309
-740 699 -1048 1108 -209 277 -510 744 -491 761 5 4 51 22 103 40 477 164 853
563 996 1057 145 502 28 1050 -310 1454 -87 103 -154 166 -263 248 -414 309
-962 400 -1441 239 -48 -16 -74 -20 -76 -13 -5 12 -48 254 -95 531 -122 712
-186 989 -325 1410 -240 728 -541 1338 -987 2008 -457 686 -940 1232 -1568
1772 -101 87 -320 257 -416 323 -18 12 -18 13 1 7 11 -4 97 -22 190 -40z
m4351 -51 c267 -34 520 -127 744 -274 350 -230 621 -570 776 -971 35 -92 76
-229 68 -229 -17 0 -751 438 -914 545 -203 134 -624 423 -780 535 -203 146
-417 366 -387 397 25 24 293 23 493 -3z m-966 -196 c74 -118 278 -315 485
-470 464 -346 996 -725 1398 -996 l189 -127 -85 -7 c-112 -8 -210 -29 -343
-72 -178 -58 -181 -70 -14 -51 156 19 378 28 414 18 28 -9 21 -14 -126 -86
-267 -133 -548 -299 -1113 -659 -99 -63 -277 -171 -395 -240 -355 -207 -527
-285 -612 -275 -133 16 -235 123 -353 369 -179 374 -337 1122 -281 1336 19 74
41 108 134 211 208 229 374 494 487 775 38 95 55 103 108 57 48 -43 61 -97 54
-222 -3 -54 -5 -99 -3 -99 9 0 28 147 36 274 11 166 2 219 -45 281 -35 45 -35
55 -1 54 15 0 34 -21 66 -71z m-956 -838 c100 -32 201 -64 226 -71 25 -7 49
-15 53 -19 5 -4 -29 -49 -74 -100 -132 -150 -155 -229 -138 -468 5 -74 11
-146 14 -161 3 -14 -2 -7 -10 17 -8 24 -31 141 -52 260 -21 119 -39 203 -41
185 -3 -26 38 -363 54 -443 7 -35 -13 13 -85 208 -82 219 -156 392 -246 572
-41 82 -75 152 -75 154 0 3 44 -13 97 -35 53 -21 178 -66 277 -99z m4193 -661
c283 -31 529 -166 734 -402 84 -97 192 -255 313 -462 135 -229 312 -474 364
-505 32 -18 -9 -10 -237 45 -949 233 -1347 290 -2021 290 -351 -1 -592 -18
-820 -60 -41 -8 -140 -24 -220 -35 -80 -12 -199 -33 -265 -46 -148 -31 -774
-187 -834 -208 -51 -19 -64 -20 -36 -4 70 39 454 280 695 437 801 521 1306
768 1842 900 229 57 330 68 485 50z m2983 -938 c-139 -47 -301 -114 -560 -233
-238 -109 -465 -202 -545 -223 -32 -8 -94 -15 -136 -15 -107 0 -172 34 -276
144 -98 103 -154 181 -127 173 42 -13 134 -26 224 -32 162 -12 430 21 875 107
698 135 721 138 545 79z m-5975 -3337 c-33 -19 -61 -36 -62 -37 -1 -1 67 -2
150 -2 144 0 157 -2 242 -32 104 -36 196 -88 264 -149 l49 -44 76 35 c42 20
76 37 76 40 0 6 -201 83 -330 127 -109 37 -270 81 -335 92 -16 2 24 3 90 1
267 -7 546 -102 783 -265 80 -54 265 -216 197 -172 -93 60 -294 172 -310 172
-4 0 14 -26 38 -57 24 -32 56 -77 72 -100 28 -43 28 -43 90 -43 120 0 201 -47
289 -169 113 -157 210 -382 251 -579 39 -190 40 -475 2 -548 -24 -45 -85 -104
-125 -121 -42 -18 -143 -20 -183 -5 l-27 11 -6 -62 c-4 -34 -16 -102 -27 -151
-11 -49 -18 -93 -17 -97 2 -5 45 23 96 61 112 84 189 130 219 130 l23 0 -25
-66 c-127 -338 -400 -642 -723 -807 -140 -72 -352 -145 -352 -122 0 12 33 71
57 103 14 18 23 35 21 37 -2 2 -30 -3 -63 -10 -32 -8 -105 -22 -162 -31 -57
-9 -103 -20 -102 -23 0 -3 19 -19 41 -36 52 -38 67 -60 51 -76 -18 -18 -318
-15 -433 4 -246 42 -465 135 -670 285 -84 61 -260 232 -260 252 0 21 161 6
295 -29 66 -17 121 -31 122 -31 2 0 -15 29 -37 65 -22 36 -58 101 -81 145
l-40 79 -47 -33 c-120 -85 -238 -73 -350 34 -150 145 -247 611 -198 949 27
179 79 295 172 381 46 42 114 79 147 80 11 0 17 8 17 23 0 12 13 71 29 131
l29 109 -55 -54 c-30 -30 -91 -99 -135 -154 -44 -55 -83 -102 -86 -105 -2 -3
8 20 23 50 169 341 449 600 805 744 35 14 66 26 69 26 3 0 -23 -19 -59 -41
-98 -63 -283 -206 -403 -314 -60 -54 -107 -98 -105 -100 2 -1 44 -5 94 -9 l91
-6 31 62 c54 110 152 211 272 282 46 27 142 69 235 102 18 6 16 8 -10 14 -16
4 -52 8 -80 9 -33 1 -45 4 -35 10 35 19 278 67 354 70 27 1 24 -3 -29 -35z
m12480 -1364 c17 -19 17 -21 0 -40 -10 -11 -23 -20 -30 -20 -7 0 -20 9 -30 20
-17 19 -17 21 0 40 10 11 23 20 30 20 7 0 20 -9 30 -20z m-377 -732 c100 -49
193 -142 242 -242 51 -101 65 -181 50 -283 -29 -209 -197 -390 -401 -432 -161
-34 -414 96 -501 256 -79 145 -77 354 5 492 62 103 195 198 330 236 84 24 193
13 275 -27z m-9283 -666 c93 -238 245 -518 377 -694 33 -43 58 -82 55 -85 -8
-8 -179 31 -342 78 -420 122 -835 327 -835 413 0 85 146 183 494 332 83 36
160 69 171 74 11 5 22 9 25 9 3 0 27 -57 55 -127z m11326 -589 c154 -75 279
-139 279 -143 0 -3 -33 -22 -74 -42 l-73 -36 -359 178 -359 178 154 1 153 1
279 -137z m-17471 -393 l0 -299 48 48 c128 128 347 149 505 49 140 -89 210
-246 210 -468 -1 -342 -177 -542 -467 -528 -113 5 -182 35 -250 108 l-46 49 0
-69 0 -70 -145 0 -145 0 0 740 0 740 145 0 145 0 0 -300z m220 280 c0 -15 -7
-20 -25 -20 -25 0 -25 -1 -25 -85 l0 -85 -30 0 -30 0 0 85 c0 84 0 85 -25 85
-18 0 -25 5 -25 20 0 18 7 20 80 20 73 0 80 -2 80 -20z m115 -43 l22 -59 22
61 c21 59 23 61 57 61 l34 0 0 -105 0 -105 -25 0 c-24 0 -25 3 -26 63 l-1 62
-29 -62 c-16 -35 -33 -63 -38 -63 -5 0 -19 28 -32 63 l-24 62 -3 -62 c-3 -59
-4 -63 -27 -63 -25 0 -25 0 -25 106 l0 105 37 -3 c34 -3 37 -6 58 -61z m-3190
29 c41 -18 62 -48 74 -109 l8 -47 -51 0 c-29 0 -59 7 -70 15 -32 24 -96 17
-96 -11 0 -28 41 -37 137 -31 l93 6 0 -63 c0 -71 -5 -76 -69 -76 -56 0 -153
-20 -179 -36 -31 -20 -27 -64 8 -81 42 -21 154 -16 238 11 21 7 22 6 22 -68
l0 -74 -37 -13 c-21 -8 -81 -13 -133 -14 -80 0 -102 4 -138 23 -50 27 -79 69
-88 129 -9 58 27 130 78 158 l36 20 -28 32 c-40 44 -48 94 -24 151 26 61 71
92 136 92 27 0 64 -6 83 -14z m-2005 -626 l0 -570 280 0 280 0 0 -125 0 -125
-440 0 -440 0 0 695 0 695 160 0 160 0 0 -570z m1385 190 c43 -16 76 -38 116
-79 93 -95 93 -93 97 -543 l3 -388 -140 0 -141 0 0 55 0 56 -37 -37 c-20 -20
-61 -48 -92 -63 -51 -24 -67 -26 -176 -26 -110 0 -125 2 -175 27 -93 45 -131
91 -156 189 -27 106 4 228 73 289 89 79 195 109 407 117 l158 6 -7 61 c-13
118 -52 156 -162 156 -83 0 -122 -22 -153 -87 l-25 -53 -132 0 c-107 0 -133 3
-133 14 0 8 9 43 20 79 37 121 121 196 265 239 90 27 307 20 390 -12z m1504
15 c224 -59 359 -257 349 -509 l-3 -71 -362 -3 -363 -2 0 -23 c0 -78 58 -174
123 -206 122 -59 284 -22 318 74 l13 35 137 0 137 0 -10 -42 c-30 -137 -149
-245 -310 -283 -82 -19 -247 -19 -323 0 -176 45 -300 158 -352 322 -28 90 -32
254 -8 348 46 174 183 313 356 359 70 19 229 20 298 1z m1162 -3 c216 -60 338
-239 339 -494 l0 -88 -366 0 -367 0 7 -42 c9 -57 37 -117 70 -150 108 -106
328 -80 375 45 l11 27 135 0 135 0 -6 -27 c-22 -98 -95 -198 -181 -249 -102
-59 -324 -83 -458 -49 -183 47 -314 175 -359 351 -20 78 -20 229 -1 313 41
174 174 312 350 362 83 24 231 24 316 1z m16539 -517 l0 -445 -100 0 -100 0 0
260 c0 143 -3 260 -8 260 -4 0 -151 -144 -327 -320 l-320 -320 -76 0 c-88 0
-89 1 -89 88 l0 56 331 332 c182 182 327 334 323 337 -5 2 -117 5 -249 6 -132
0 -246 1 -252 1 -10 0 -13 26 -13 95 l0 95 440 0 440 0 0 -445z m3411 -552
c45 -21 96 -60 88 -67 -12 -12 -259 -18 -307 -7 -47 10 -57 9 -92 -9 -42 -21
-90 -27 -90 -10 0 31 107 92 192 110 63 13 158 5 209 -17z m-345 -821 c12 -7
17 -42 15 -89 -1 -18 -7 -23 -26 -23 -24 0 -25 3 -25 53 0 64 8 77 36 59z
m118 2 c9 -3 16 -17 16 -31 0 -21 -4 -24 -27 -21 -31 3 -44 35 -21 49 16 11
13 10 32 3z m-214 -254 l0 -200 -115 0 -115 0 0 25 c0 25 1 25 84 25 71 0 84
3 88 18 3 9 4 73 4 142 l-1 125 -57 3 c-57 3 -58 4 -58 32 l0 30 85 0 85 0 0
-200z m198 22 l32 -2 0 -81 0 -80 -27 3 c-26 3 -28 7 -31 56 l-3 52 -55 0
c-51 0 -54 2 -54 24 0 31 15 34 138 28z"/>
<path d="M11400 19490 c-13 -8 -12 -10 1 -15 15 -6 69 10 69 20 0 9 -54 5 -70
-5z"/>
<path d="M11630 19339 l-64 -30 -99 20 c-88 17 -103 18 -145 6 -49 -15 -152
-97 -174 -138 -10 -20 -9 -20 16 3 22 20 37 24 79 23 29 0 60 3 70 9 18 9 211
19 202 10 -2 -3 15 -17 38 -32 23 -14 56 -43 74 -63 18 -20 34 -37 36 -37 1 0
4 10 4 22 2 18 0 20 -7 8 -9 -13 -10 -13 -11 0 -1 8 0 20 1 25 1 6 -2 7 -6 2
-9 -8 -54 31 -54 47 0 6 6 4 13 -4 7 -8 18 -16 24 -17 18 -4 98 -94 97 -108
-1 -7 6 -12 15 -11 11 1 19 -13 27 -44 7 -29 13 -40 17 -30 4 8 5 -3 2 -25 -5
-44 6 -72 24 -60 8 4 10 22 5 52 -5 34 -4 44 5 39 15 -10 4 84 -15 133 -8 18
-14 42 -14 52 0 10 -12 31 -26 46 -14 15 -35 41 -47 57 l-20 28 23 -7 c19 -6
22 -4 17 10 -5 11 -3 15 5 12 7 -2 12 -10 10 -16 -1 -7 2 -10 7 -7 5 4 28 -15
51 -41 46 -52 44 -40 -2 18 -23 29 -93 79 -109 79 -2 0 -33 -14 -69 -31z m-43
-104 c-9 -7 -15 -15 -12 -18 3 -4 2 -5 -2 -2 -15 11 -11 34 5 28 11 -5 13 -3
7 7 -6 9 -4 11 5 5 10 -6 10 -11 -3 -20z"/>
<path d="M10929 19257 c-14 -10 -15 -17 -5 -34 9 -18 15 -20 31 -11 11 6 21
12 23 14 6 4 -18 44 -26 44 -4 0 -14 -6 -23 -13z"/>
<path d="M11877 19185 c9 -19 18 -33 21 -31 4 5 -26 66 -33 66 -3 0 3 -16 12
-35z"/>
<path d="M11194 19190 c-68 -27 -90 -53 -121 -141 -32 -94 -34 -208 -5 -324
23 -93 95 -262 150 -351 20 -34 55 -92 77 -128 22 -36 43 -66 47 -66 4 0 10
10 14 23 3 12 26 63 50 112 23 50 59 137 78 195 65 193 84 315 66 425 -18 111
-60 172 -166 242 -11 7 -1 6 21 -2 93 -36 139 -85 182 -194 l22 -56 0 38 c1
49 -36 122 -89 174 -45 46 -91 60 -210 69 -50 3 -77 0 -116 -16z"/>
<path d="M10844 19141 c-71 -43 -67 -147 7 -184 124 -60 222 124 99 188 -39
20 -68 19 -106 -4z m96 -33 c0 -13 -32 -6 -37 9 -3 7 3 9 16 6 12 -3 21 -10
21 -15z m-76 -13 c-4 -8 -13 -15 -21 -15 -13 0 -13 3 -3 15 7 8 16 15 21 15 5
0 6 -7 3 -15z m50 -21 c21 -8 20 -40 -1 -48 -9 -4 -23 0 -31 8 -13 12 -13 18
-2 30 14 18 13 18 34 10z m52 -41 c-11 -11 -19 6 -11 24 8 17 8 17 12 0 3 -10
2 -21 -1 -24z m-108 -22 c3 -8 -1 -12 -9 -9 -7 2 -15 10 -17 17 -3 8 1 12 9 9
7 -2 15 -10 17 -17z m72 -21 c0 -5 -7 -10 -16 -10 -8 0 -12 5 -9 10 3 6 10 10
16 10 5 0 9 -4 9 -10z"/>
<path d="M11932 19020 c0 -14 2 -19 5 -12 2 6 2 18 0 25 -3 6 -5 1 -5 -13z"/>
<path d="M11942 18935 c0 -16 2 -22 5 -12 2 9 2 23 0 30 -3 6 -5 -1 -5 -18z"/>
<path d="M10867 18882 c-16 -18 -16 -20 3 -37 19 -18 22 -18 37 -2 16 16 16
18 -3 37 -20 20 -21 20 -37 2z"/>
<path d="M11852 18723 c-4 -10 -14 -18 -22 -18 -8 0 -17 -11 -18 -24 -2 -13
-12 -37 -23 -55 -10 -17 -19 -36 -19 -43 0 -6 -14 -41 -31 -78 -16 -36 -37
-84 -44 -106 -8 -23 -30 -62 -48 -88 -19 -25 -41 -59 -49 -76 -9 -16 -27 -51
-41 -77 -15 -27 -22 -48 -17 -48 6 0 16 11 22 25 6 14 14 25 18 25 7 0 18 16
81 112 16 24 26 33 31 25 5 -8 8 -4 8 10 0 40 40 110 54 96 3 -4 6 1 6 10 0
10 4 17 8 17 4 0 16 24 27 53 24 69 57 141 66 145 5 2 5 10 2 18 -5 13 -7 13
-15 2 -6 -8 -7 -5 -2 12 4 14 10 27 14 30 4 3 10 15 14 28 9 26 -11 31 -22 5z"/>
<path d="M11350 17815 c0 -6 7 -21 16 -33 8 -12 12 -22 8 -22 -5 0 -3 -5 3
-11 16 -16 44 -4 37 16 -3 8 -11 15 -16 15 -5 0 -18 10 -29 23 -10 12 -18 17
-19 12z"/>
<path d="M11457 17783 c-7 -11 10 -40 18 -31 4 4 3 14 -3 24 -5 9 -12 12 -15
7z"/>
<path d="M11509 17759 c-10 -6 -10 -13 1 -36 13 -27 14 -27 18 -5 3 22 32 32
32 11 0 -5 -5 -7 -11 -3 -7 4 -10 1 -7 -6 7 -21 27 -24 34 -6 12 30 -38 63
-67 45z"/>
<path d="M11439 17737 c13 -17 4 -28 -17 -20 -11 5 -14 2 -9 -10 5 -12 1 -17
-13 -17 -11 0 -20 -4 -20 -10 0 -13 23 -13 37 1 7 7 20 0 45 -25 37 -38 78
-48 78 -20 0 19 -36 71 -65 96 -25 21 -53 25 -36 5z"/>
<path d="M11156 17698 c-22 -34 -75 -185 -73 -209 2 -23 0 -25 57 51 14 18 40
39 58 47 36 15 36 18 6 89 -18 44 -30 49 -48 22z"/>
<path d="M11535 17685 c4 -11 10 -30 12 -42 3 -13 9 -20 14 -17 15 9 10 30
-12 55 -18 21 -20 21 -14 4z"/>
<path d="M11394 17634 c-5 -18 -1 -29 12 -39 27 -20 44 -18 44 5 0 24 13 26
30 5 7 -8 22 -15 33 -15 14 0 1 12 -37 35 -32 19 -62 35 -67 35 -5 0 -12 -11
-15 -26z m49 -10 c-7 -3 -9 -13 -6 -22 6 -15 5 -15 -10 -3 -19 15 -14 31 11
30 10 0 12 -3 5 -5z"/>
<path d="M11603 17523 c16 -32 42 -70 57 -86 15 -15 30 -37 33 -49 4 -16 3
-18 -6 -9 -10 10 -47 16 -47 7 0 -12 31 -76 40 -81 5 -3 19 -1 30 5 22 12 21
13 25 -50 2 -19 0 -29 -2 -22 -8 21 -43 -17 -43 -46 l0 -25 25 27 c20 22 29
25 40 16 7 -6 11 -19 8 -27 -6 -14 -7 -14 -13 3 -7 18 -7 18 -18 -3 -16 -29
-15 -36 2 -30 8 3 17 1 19 -6 7 -21 18 -1 23 42 3 26 -1 51 -10 69 -29 52 -84
181 -91 211 -5 24 -82 111 -99 111 -2 0 10 -26 27 -57z m117 -198 c0 -5 -5 -3
-10 5 -5 8 -10 20 -10 25 0 6 5 3 10 -5 5 -8 10 -19 10 -25z"/>
<path d="M11523 17563 c-15 -6 -18 -63 -3 -63 6 0 10 5 10 11 0 24 27 0 50
-47 21 -40 30 -50 55 -52 28 -3 28 -2 12 10 -11 8 -31 38 -45 68 -27 54 -57
82 -79 73z"/>
<path d="M11256 17497 c-3 -14 -3 -33 1 -43 4 -11 3 -15 -5 -11 -7 5 -8 -3 0
-30 10 -39 34 -67 49 -57 5 3 10 -7 10 -23 1 -16 3 -21 6 -11 4 17 -30 158
-46 186 -6 11 -10 9 -15 -11z"/>
<path d="M11402 17457 c3 -15 0 -28 -5 -30 -7 -2 -7 -11 -2 -23 4 -10 7 -24 6
-31 -3 -21 33 -32 75 -23 70 17 102 13 120 -15 9 -15 14 -37 12 -54 -2 -17 -1
-28 4 -25 15 9 8 72 -11 95 -14 18 -31 23 -82 27 -35 2 -70 9 -76 14 -18 14
-16 47 3 55 20 7 44 -15 27 -25 -7 -5 -9 -13 -4 -21 12 -19 31 -4 31 23 0 30
-22 48 -52 45 -13 -2 -29 1 -37 5 -11 7 -13 3 -9 -17z"/>
<path d="M11508 17435 c2 -19 8 -32 13 -29 13 8 11 40 -4 52 -10 9 -12 4 -9
-23z"/>
<path d="M11477 17318 c-20 -18 -23 -25 -13 -34 9 -9 19 -8 37 2 13 7 42 13
63 14 38 0 39 0 21 20 -25 27 -75 26 -108 -2z"/>
<path d="M11641 17254 c-33 -28 -40 -58 -16 -68 8 -3 15 0 15 6 0 7 17 29 37
50 33 34 35 38 16 38 -12 0 -35 -12 -52 -26z"/>
<path d="M11792 17164 c0 -19 4 -31 10 -28 5 3 7 8 4 12 -3 3 1 10 9 16 13 10
13 13 -4 23 -17 11 -19 9 -19 -23z"/>
<path d="M11560 17050 c0 -24 -21 -70 -32 -70 -4 0 -8 5 -8 11 0 6 -10 9 -22
7 -17 -2 -24 -11 -26 -32 -4 -29 17 -34 26 -6 3 7 0 10 -7 6 -6 -4 -11 -2 -11
3 0 6 7 11 16 11 11 0 15 -8 13 -33 -4 -43 6 -57 41 -57 22 0 30 6 39 30 5 17
17 30 26 30 9 0 13 -5 10 -10 -4 -6 -11 -8 -16 -5 -5 4 -9 -1 -9 -9 0 -20 14
-20 31 0 16 20 0 49 -27 49 -16 0 -20 9 -22 48 -3 45 -22 69 -22 27z"/>
<path d="M11296 16871 c-3 -5 1 -15 10 -22 9 -7 20 -24 26 -38 7 -21 11 -23
18 -11 15 23 12 38 -10 60 -22 22 -36 25 -44 11z"/>
<path d="M14417 18379 c-46 -27 -62 -140 -27 -197 73 -120 203 15 146 153 -21
51 -74 70 -119 44z"/>
<path d="M13353 18271 c-11 -39 -18 -73 -15 -76 9 -9 71 -5 77 5 6 10 -23 118
-35 133 -4 4 -16 -24 -27 -62z"/>
<path d="M14820 18345 c0 -44 1 -45 31 -45 44 0 69 17 69 46 0 26 -30 44 -76
44 -22 0 -24 -4 -24 -45z"/>
<path d="M15537 18384 c-4 -4 -7 -61 -7 -126 l0 -118 35 0 c91 0 144 59 130
144 -7 45 -20 68 -50 83 -27 15 -99 26 -108 17z"/>
<path d="M16880 18335 c0 -52 1 -55 25 -55 28 0 65 32 65 55 0 23 -37 55 -65
55 -24 0 -25 -3 -25 -55z"/>
<path d="M12763 17826 c-57 -26 -82 -120 -49 -184 18 -35 72 -85 113 -106 31
-16 32 -15 59 17 42 50 57 94 52 160 -4 48 -9 63 -35 88 -36 36 -92 46 -140
25z"/>
<path d="M14358 17699 c-14 -8 -18 -24 -18 -77 0 -80 7 -109 27 -116 30 -12
82 73 109 179 6 24 5 25 -47 25 -30 0 -62 -5 -71 -11z"/>
<path d="M15604 17796 c-46 -20 -68 -74 -61 -152 7 -72 25 -114 70 -161 40
-42 68 -42 111 2 59 58 83 184 52 260 -25 58 -102 81 -172 51z m117 -128 c8
-15 6 -24 -8 -40 -35 -39 -49 -40 -83 -7 l-31 32 32 33 c30 31 33 32 56 17 13
-9 28 -25 34 -35z"/>
<path d="M13249 17689 c-19 -19 -21 -29 -15 -85 8 -76 13 -91 32 -98 24 -9 61
40 85 112 12 37 24 73 27 80 3 9 -11 12 -52 12 -44 0 -61 -5 -77 -21z"/>
<path d="M7554 17539 c-91 -27 -183 -128 -198 -216 -3 -21 -6 -167 -6 -324 0
-348 4 -366 89 -450 80 -79 104 -84 382 -83 226 0 226 0 282 28 31 15 72 45
91 68 63 73 66 94 66 452 0 315 -1 322 -24 371 -24 52 -81 111 -138 142 -29
16 -63 18 -273 20 -132 1 -254 -2 -271 -8z m110 -34 c4 -11 21 -15 66 -15 47
0 60 3 60 15 0 8 6 15 14 15 8 0 16 -7 20 -15 4 -11 21 -15 65 -15 43 0 60 4
65 15 3 8 12 15 21 15 8 0 15 -7 15 -15 0 -8 8 -15 18 -15 9 0 37 -9 61 -21
32 -14 46 -16 52 -8 9 16 32 1 25 -17 -3 -8 8 -35 24 -61 17 -26 30 -53 30
-60 0 -7 7 -10 15 -7 10 4 15 0 15 -15 0 -12 -4 -21 -10 -21 -6 0 -10 -28 -10
-65 0 -51 3 -65 15 -65 8 0 15 -5 15 -10 0 -6 -7 -13 -15 -16 -22 -9 -20 -93
3 -110 16 -12 16 -13 0 -19 -13 -5 -18 -18 -18 -51 0 -24 5 -44 10 -44 6 0 10
-9 10 -20 0 -11 -4 -20 -10 -20 -6 0 -10 -26 -10 -59 0 -33 5 -63 10 -66 15
-9 12 -45 -3 -39 -8 3 -19 -7 -26 -23 -7 -15 -20 -39 -29 -53 -9 -14 -17 -34
-17 -45 0 -15 -7 -20 -25 -20 -38 0 -113 -26 -128 -44 -11 -13 -15 -14 -35 -2
-24 16 -130 16 -135 0 -5 -13 -30 -11 -34 2 -7 20 -114 14 -135 -7 -16 -16
-18 -16 -21 -1 -2 10 -24 22 -57 32 -30 8 -57 20 -60 26 -5 7 -11 6 -20 -1
-17 -14 -36 -4 -29 14 3 8 -5 31 -19 53 -13 21 -27 48 -31 60 -4 14 -12 20
-22 16 -17 -6 -19 20 -1 35 17 14 14 112 -4 123 -12 7 -11 13 2 36 17 29 16
85 -2 91 -12 5 -12 32 1 32 6 0 10 23 10 50 0 28 -4 50 -10 50 -15 0 -12 27 3
33 15 6 14 114 -2 130 -16 16 -13 40 4 33 10 -4 20 6 30 31 9 21 23 45 32 55
8 9 13 24 10 32 -7 18 16 39 29 26 6 -6 20 -4 37 5 15 8 44 17 63 21 24 4 34
11 30 20 -3 9 2 14 13 14 10 0 21 -7 25 -15z"/>
<path d="M7573 17447 c-42 -16 -47 -22 -34 -44 32 -55 36 -57 80 -31 45 25 45
26 31 62 -10 28 -27 31 -77 13z"/>
<path d="M7680 17448 c1 -31 17 -40 64 -33 36 6 46 11 46 26 0 16 -8 19 -55
19 -37 0 -55 -4 -55 -12z"/>
<path d="M7820 17441 c0 -14 10 -20 46 -25 52 -7 60 -4 67 24 5 18 0 20 -54
20 -51 0 -59 -3 -59 -19z"/>
<path d="M7966 17438 c-10 -39 -7 -45 31 -68 l37 -22 28 34 c15 18 28 36 28
39 0 9 -76 39 -99 39 -11 0 -21 -9 -25 -22z"/>
<path d="M7473 17368 c-38 -58 -38 -80 1 -105 l34 -22 21 35 c27 45 26 52 -7
92 l-27 32 -22 -32z"/>
<path d="M8087 17360 l-28 -40 23 -39 24 -40 32 21 c39 25 41 50 7 101 -14 20
-27 37 -28 37 -1 0 -15 -18 -30 -40z"/>
<path d="M7742 17373 c-28 -4 -33 -8 -29 -24 7 -26 -13 -36 -29 -15 -13 18
-24 16 -56 -12 -13 -11 -15 -19 -8 -27 6 -7 7 -20 4 -29 -6 -16 -8 -16 -25 -1
-16 16 -19 15 -34 -15 -15 -30 -15 -33 0 -50 21 -23 12 -40 -15 -33 -14 4 -20
0 -20 -10 0 -8 -3 -22 -6 -30 -3 -9 3 -16 15 -20 12 -3 21 -13 21 -22 0 -12
-6 -16 -20 -12 -16 4 -20 0 -20 -23 0 -20 6 -29 21 -33 23 -6 17 -27 -7 -27
-8 0 -14 -10 -14 -26 0 -21 4 -25 20 -21 14 4 20 0 20 -13 0 -10 -8 -20 -18
-22 -15 -4 -18 -12 -14 -37 5 -33 11 -38 30 -19 9 9 13 7 18 -6 4 -11 0 -22
-12 -31 -19 -13 -19 -14 1 -50 17 -34 20 -35 32 -19 10 14 16 15 25 6 8 -8 8
-15 -3 -28 -12 -14 -10 -19 10 -35 28 -23 47 -24 55 -4 3 8 12 12 20 9 8 -3
12 -12 9 -21 -7 -19 13 -33 50 -33 20 0 27 5 27 20 0 11 7 20 15 20 8 0 15 -9
15 -20 0 -15 7 -20 28 -20 34 0 49 10 53 34 5 24 29 34 29 12 0 -20 19 -20 48
0 16 11 20 22 16 39 -6 24 10 43 21 25 11 -17 24 -11 39 19 14 26 14 30 1 41
-8 7 -15 21 -15 32 0 15 3 17 19 9 15 -8 20 -7 25 5 11 28 6 54 -9 54 -8 0
-15 7 -15 15 0 8 9 15 20 15 15 0 20 7 20 25 0 18 -5 25 -20 25 -11 0 -20 7
-20 15 0 8 9 15 21 15 16 0 20 5 17 28 -2 19 -8 26 -20 24 -23 -4 -24 24 -2
36 26 14 10 65 -16 57 -15 -5 -20 -2 -20 13 0 11 7 23 15 26 14 5 14 9 -1 38
-22 43 -21 43 -39 28 -11 -9 -19 -10 -26 -3 -8 8 -7 13 0 17 19 12 12 33 -16
51 -24 16 -27 16 -38 1 -18 -24 -35 -20 -35 9 0 18 -5 25 -19 25 -11 0 -27 3
-36 6 -11 5 -18 0 -22 -15 -7 -27 -33 -28 -33 -1 0 11 -3 19 -7 18 -5 0 -23
-3 -41 -5z m163 -82 c49 -22 68 -43 97 -106 20 -44 23 -66 23 -180 0 -119 -2
-135 -26 -186 -31 -65 -67 -94 -136 -110 -125 -29 -230 32 -265 155 -18 64
-15 231 5 298 20 66 69 122 120 137 54 16 139 12 182 -8z"/>
<path d="M7682 17198 c-7 -7 -12 -43 -12 -95 0 -82 0 -83 26 -83 16 0 35 11
51 30 18 22 34 30 57 30 36 0 76 -24 76 -46 0 -9 10 -14 29 -14 28 0 29 2 33
53 5 89 -4 132 -29 135 -20 3 -23 -1 -23 -27 l0 -31 -79 0 c-79 0 -80 0 -83
27 -3 30 -26 41 -46 21z"/>
<path d="M7760 17195 c0 -11 12 -15 45 -15 33 0 45 4 45 15 0 11 -12 15 -45
15 -33 0 -45 -4 -45 -15z"/>
<path d="M7777 17043 c-16 -15 -4 -23 34 -23 36 0 40 2 29 15 -13 15 -51 20
-63 8z"/>
<path d="M7670 16905 c0 -74 2 -86 20 -95 26 -14 40 -5 40 25 0 14 7 25 18 28
14 4 88 3 129 -2 6 0 13 -13 15 -28 2 -22 8 -27 23 -25 11 2 22 6 24 8 2 2 4
40 4 86 0 82 -1 83 -26 86 -18 2 -29 -3 -37 -17 -6 -12 -24 -28 -40 -36 -35
-18 -68 -8 -98 29 -12 16 -30 26 -46 26 -26 0 -26 0 -26 -85z"/>
<path d="M7772 16978 c7 -19 53 -21 68 -4 11 14 7 16 -30 16 -29 0 -40 -4 -38
-12z"/>
<path d="M7770 16830 c-21 -13 -7 -22 39 -24 27 -2 41 2 41 10 0 22 -52 32
-80 14z"/>
<path d="M7440 17185 c0 -48 3 -55 20 -55 14 0 22 11 29 38 10 33 8 39 -12 54
-12 10 -25 18 -29 18 -5 0 -8 -25 -8 -55z"/>
<path d="M8140 17222 c-18 -15 -21 -24 -15 -55 6 -31 11 -38 29 -35 18 3 21
11 24 56 3 56 -3 62 -38 34z"/>
<path d="M7440 17060 c0 -46 25 -57 36 -15 8 32 -1 55 -21 55 -11 0 -15 -11
-15 -40z"/>
<path d="M8140 17060 c0 -33 3 -40 20 -40 17 0 20 7 20 40 0 33 -3 40 -20 40
-17 0 -20 -7 -20 -40z"/>
<path d="M7437 16976 c-3 -8 -4 -22 -2 -32 2 -11 4 -22 4 -26 1 -3 10 -4 21
-1 16 4 19 12 16 32 -2 14 -5 29 -5 34 -2 13 -29 8 -34 -7z"/>
<path d="M8140 16955 c0 -19 2 -35 4 -35 2 0 11 -3 20 -6 13 -5 16 2 16 35 0
34 -3 41 -20 41 -16 0 -20 -7 -20 -35z"/>
<path d="M7453 16882 c-12 -8 -17 -41 -14 -90 l1 -23 30 21 c16 11 27 26 25
33 -2 7 -6 24 -9 40 -7 28 -13 32 -33 19z"/>
<path d="M8126 16859 c-9 -49 -8 -53 24 -72 l30 -18 0 55 c0 31 -4 56 -9 56
-5 0 -16 2 -24 6 -10 3 -16 -4 -21 -27z"/>
<path d="M7470 16751 l-34 -29 19 -41 c28 -64 38 -67 73 -26 l30 37 -25 44
c-14 24 -25 44 -26 44 -1 0 -18 -13 -37 -29z"/>
<path d="M8081 16734 c-12 -19 -21 -37 -21 -40 0 -9 52 -74 59 -74 10 0 51 75
51 93 0 15 -45 57 -60 57 -5 0 -17 -16 -29 -36z"/>
<path d="M7554 16634 c-32 -41 -24 -55 38 -72 34 -9 40 -8 53 11 22 32 19 42
-25 71 l-39 26 -27 -36z"/>
<path d="M7993 16644 c-39 -24 -41 -27 -31 -55 12 -34 38 -38 94 -14 38 15 37
22 -3 72 l-18 22 -42 -25z"/>
<path d="M7690 16602 c0 -6 -3 -17 -6 -26 -5 -13 3 -16 50 -16 49 0 56 2 56
20 0 15 -7 20 -27 20 -16 0 -38 3 -50 6 -13 4 -23 2 -23 -4z"/>
<path d="M7865 16601 c-27 -4 -41 -12 -43 -23 -3 -16 5 -18 57 -18 58 0 60 1
52 22 -9 26 -13 27 -66 19z"/>
<path d="M14666 15134 c-3 -9 -6 -23 -6 -33 0 -20 126 -136 148 -136 8 0 19
11 24 24 7 21 0 32 -63 92 -72 71 -92 81 -103 53z"/>
<path d="M14835 14730 c-23 -45 -16 -101 24 -186 66 -141 186 -273 349 -382
102 -68 184 -103 257 -109 107 -8 132 48 73 159 -36 67 -187 222 -378 386
-132 114 -196 154 -260 160 -46 4 -49 3 -65 -28z m190 -143 c14 -34 14 -38 0
-43 -19 -8 -84 22 -92 42 -9 23 6 62 25 67 23 5 47 -19 67 -66z m143 -43 c43
-38 60 -60 53 -67 -18 -18 -72 14 -102 62 -51 80 -37 81 49 5z m60 -135 c46
-45 91 -113 81 -123 -3 -3 -21 -1 -41 5 -68 18 -181 162 -152 192 10 10 61
-23 112 -74z m-152 -7 c72 -53 139 -141 120 -159 -6 -7 -117 98 -158 150 -36
45 -18 50 38 9z m316 -79 c35 -38 62 -82 55 -90 -8 -7 -56 24 -79 51 -18 22
-24 66 -10 66 5 0 20 -12 34 -27z m48 -153 c21 -17 23 -21 10 -30 -8 -5 -25
-10 -37 -10 -37 0 -78 52 -57 73 8 8 55 -10 84 -33z"/>
<path d="M15724 13873 c27 -54 45 -63 126 -63 33 0 37 3 33 19 -3 10 -17 33
-31 51 -24 28 -35 32 -90 37 l-64 6 26 -50z"/>
<path d="M26301 10452 c-11 -21 -41 -133 -41 -154 0 -17 52 -43 128 -62 l52
-14 15 27 c17 33 50 160 43 166 -9 10 -148 55 -167 55 -11 0 -25 -8 -30 -18z"/>
<path d="M25606 10420 c-82 -15 -188 -73 -244 -135 -161 -176 -161 -427 1
-601 177 -191 462 -192 642 -3 218 229 131 607 -165 716 -66 25 -167 35 -234
23z m130 -120 c40 0 42 -29 4 -63 -29 -26 -38 -29 -83 -24 -40 3 -56 11 -75
32 -23 27 -23 29 -5 39 21 12 101 25 121 20 8 -2 25 -4 38 -4z m240 -188 c13
-29 24 -66 24 -82 0 -28 -1 -28 -32 -19 -72 20 -111 108 -74 165 17 25 18 25
38 7 12 -10 31 -42 44 -71z m-521 7 c26 -49 19 -97 -19 -135 -19 -19 -44 -34
-56 -34 -22 0 -22 3 -17 54 3 29 15 76 27 104 24 56 41 59 65 11z m323 -73
c13 -27 26 -63 28 -80 5 -28 0 -35 -48 -73 -29 -24 -60 -43 -68 -43 -9 0 -41
16 -73 36 -50 31 -57 39 -57 67 1 18 9 55 18 82 16 47 20 50 57 56 22 4 58 6
80 5 38 -1 41 -4 63 -50z m166 -212 c22 -8 20 -17 -11 -55 -36 -42 -101 -89
-125 -89 -14 0 -18 8 -18 41 0 75 83 130 154 103z m-380 -29 c38 -18 66 -62
66 -104 0 -37 -15 -39 -76 -12 -50 23 -126 89 -118 103 18 28 82 35 128 13z"/>
<path d="M20965 10349 c-196 -15 -185 -25 35 -33 234 -8 454 -27 650 -57 818
-124 1465 -347 2155 -742 77 -44 159 -91 183 -105 64 -36 50 -12 -25 45 -214
159 -513 343 -755 463 -483 240 -993 382 -1543 430 -136 11 -549 11 -700 -1z"/>
<path d="M24897 9702 c-8 -21 -20 -63 -28 -95 -15 -69 -18 -66 91 -101 49 -16
79 -21 87 -15 10 9 53 150 53 176 0 10 -81 43 -152 62 -36 9 -37 8 -51 -27z"/>
<path d="M21402 9444 c299 -203 636 -513 852 -784 115 -145 282 -388 365 -535
28 -49 51 -87 51 -83 0 15 -92 214 -143 308 -228 427 -530 756 -933 1016 -101
65 -284 164 -304 164 -8 0 43 -39 112 -86z"/>
<path d="M24855 7281 c-46 -28 -80 -98 -71 -147 l8 -39 18 35 c10 19 30 46 44
59 24 23 28 24 43 9 26 -26 27 -104 4 -197 -25 -98 -26 -115 -7 -130 13 -11
38 13 144 141 15 18 8 82 -8 76 -5 -2 -31 -29 -59 -61 -28 -32 -51 -57 -51
-55 0 2 9 26 19 54 40 105 36 203 -9 252 -25 27 -36 27 -75 3z"/>
<path d="M24644 7056 c-45 -48 -57 -91 -34 -126 6 -9 10 -10 10 -3 0 21 61 83
81 83 45 0 51 -86 15 -211 -23 -80 -22 -119 3 -119 5 0 43 34 84 75 61 62 73
79 69 100 -7 41 -20 39 -69 -14 -26 -28 -51 -51 -55 -51 -4 0 2 21 14 48 11
26 23 78 25 117 4 62 2 74 -19 105 -36 54 -69 53 -124 -4z"/>
<path d="M24457 6889 c-127 -95 -62 -339 90 -339 53 0 77 24 94 92 22 92 0
197 -52 249 -26 26 -95 25 -132 -2z m102 -76 c47 -58 63 -186 29 -219 -38 -37
-127 60 -136 145 -4 43 -1 53 21 75 33 33 60 33 86 -1z"/>
<path d="M24506 6744 c-9 -23 -7 -54 3 -54 5 0 16 -3 24 -6 18 -7 31 57 13 68
-18 12 -33 9 -40 -8z"/>
<path d="M24241 6709 c-61 -37 -82 -77 -65 -123 4 -12 14 -6 43 25 44 45 64
49 87 14 22 -34 15 -112 -19 -194 -19 -48 -23 -69 -16 -83 5 -10 15 -18 21
-18 12 0 139 92 158 115 13 15 6 65 -8 65 -5 0 -35 -20 -66 -45 -32 -25 -60
-45 -62 -45 -1 0 10 24 25 54 52 97 49 192 -6 235 -32 26 -49 26 -92 0z"/>
<path d="M24130 6531 c-5 -11 -10 -39 -10 -63 l-1 -43 -20 38 c-22 42 -22 42
-54 21 l-24 -15 54 -109 c29 -60 55 -115 57 -122 8 -24 61 12 54 37 -3 11 -12
46 -21 79 -18 62 -15 95 11 120 14 14 14 19 -3 46 -20 35 -28 37 -43 11z"/>
<path d="M23913 6410 c-83 -48 -104 -118 -63 -209 11 -24 20 -47 20 -51 0 -7
-174 -91 -215 -103 -28 -9 -39 0 -69 60 l-26 52 35 12 c38 14 39 16 25 53 -9
25 -10 25 -46 10 -20 -8 -37 -14 -39 -12 -1 2 -10 19 -20 37 l-18 35 -19 -24
c-12 -15 -18 -33 -15 -49 3 -15 -1 -29 -10 -36 -22 -16 0 -69 26 -60 16 5 26
-6 56 -64 27 -50 45 -73 67 -82 38 -15 57 -9 234 79 144 71 153 80 155 160 l1
47 19 -40 c10 -22 20 -44 22 -50 4 -12 57 14 57 28 0 19 -105 236 -115 237 -5
0 -34 -14 -62 -30z m56 -170 c2 -68 -32 -60 -69 14 -23 49 -20 65 18 88 l27
17 12 -47 c6 -26 11 -58 12 -72z"/>
<path d="M23364 6155 c-122 -36 -148 -96 -92 -209 22 -43 64 -86 84 -86 31 0
54 39 55 93 l0 52 27 -53 c22 -43 30 -51 47 -46 11 3 24 10 29 14 7 7 -84 221
-103 241 -3 4 -24 1 -47 -6z m20 -133 c15 -102 -24 -109 -67 -13 l-20 45 23
18 c39 32 54 20 64 -50z"/>
<path d="M22983 6139 c-112 -32 -89 -203 37 -281 38 -23 210 -77 329 -103 l33
-7 -18 32 c-25 42 -46 55 -124 75 -36 9 -67 19 -69 21 -2 2 4 13 14 24 27 30
31 99 7 146 -24 48 -47 69 -95 89 -40 17 -66 18 -114 4z m116 -83 c41 -37 63
-113 45 -159 -13 -34 -123 30 -151 88 -40 83 36 134 106 71z"/>
<path d="M21071 5178 c-8 -45 -9 -73 -1 -98 14 -47 14 -44 -23 -58 l-34 -12
24 -50 c28 -58 41 -61 106 -25 60 34 64 40 69 113 5 67 -1 73 -40 46 -22 -15
-22 -15 -22 33 0 52 -29 113 -54 113 -9 0 -18 -21 -25 -62z"/>
<path d="M20881 4704 c-25 -32 -25 -35 -7 -59 13 -17 18 -18 69 -5 83 19 88
25 49 60 -42 39 -83 40 -111 4z"/>
<path d="M20891 4583 c-16 -16 -39 -35 -50 -43 -12 -8 -23 -28 -25 -45 -2 -16
-8 -41 -13 -55 -12 -31 -6 -60 12 -60 7 0 19 -15 25 -34 32 -99 180 -83 180
19 0 25 -8 44 -25 60 -33 34 -42 31 -37 -9 4 -38 -8 -51 -42 -42 -50 12 -53
86 -4 120 50 35 100 15 177 -73 29 -34 72 -71 94 -83 51 -26 118 -27 155 -2
l27 18 -50 7 c-84 10 -128 41 -226 157 -83 98 -141 117 -198 65z"/>
<path d="M21301 4227 c-62 -31 -82 -114 -44 -179 24 -41 49 -48 58 -16 12 38
36 58 70 58 46 0 71 -33 99 -128 37 -128 90 -181 198 -197 57 -9 69 6 27 35
-55 40 -106 117 -145 217 -47 124 -67 158 -117 194 -44 32 -103 39 -146 16z"/>
<path d="M21553 4172 c27 -135 114 -263 226 -335 42 -27 168 -231 238 -387 44
-97 48 -111 48 -187 1 -76 3 -84 31 -120 17 -21 37 -38 45 -38 16 0 27 36 28
98 1 43 -3 53 -34 84 -22 22 -49 69 -71 122 -42 101 -106 220 -186 348 -39 63
-58 103 -58 125 0 68 -86 187 -203 280 -58 45 -71 48 -64 10z"/>
<path d="M20930 3920 c-7 -17 -10 -46 -7 -65 3 -19 2 -35 -3 -35 -5 0 -16 -7
-25 -17 -21 -20 -13 -74 17 -115 l20 -28 -24 -20 c-19 -15 -21 -22 -12 -37 30
-49 144 -53 295 -8 173 51 270 41 356 -37 56 -53 73 -85 74 -145 0 -36 3 -43
9 -28 38 87 -44 223 -168 277 -42 19 -59 20 -186 15 -175 -8 -230 2 -257 46
-27 45 -25 92 6 123 29 29 81 30 99 1 9 -14 6 -21 -17 -40 l-28 -22 21 -23
c48 -51 120 -9 120 71 0 32 -7 46 -39 78 -32 33 -45 39 -80 39 -23 0 -56 -7
-72 -16 -28 -14 -33 -14 -54 0 -31 21 -31 21 -45 -14z"/>
<path d="M21230 3936 c0 -2 10 -25 21 -52 19 -42 20 -53 10 -97 -13 -58 -10
-65 22 -48 28 15 57 61 57 91 0 31 -25 75 -54 94 -23 14 -56 22 -56 12z"/>
<path d="M21990 3824 c-14 -36 -11 -162 4 -207 19 -52 63 -107 81 -101 27 11
57 72 57 119 0 53 -36 137 -79 183 -37 39 -50 40 -63 6z"/>
<path d="M21695 3663 c12 -51 71 -146 108 -177 30 -24 49 -31 97 -34 l60 -4 0
34 c0 87 -144 208 -247 208 -22 0 -24 -3 -18 -27z"/>
<path d="M22365 3637 c-69 -26 -135 -69 -184 -120 l-34 -36 64 21 c41 13 103
22 172 26 l107 5 -6 33 c-5 30 -4 34 14 34 35 0 34 17 -4 39 -43 26 -54 26
-129 -2z"/>
<path d="M21201 3559 c-64 -23 -83 -37 -77 -58 3 -11 -12 -28 -44 -51 -55 -38
-63 -60 -25 -60 29 0 31 -7 9 -38 -9 -13 -14 -25 -12 -28 3 -2 49 18 104 46
124 61 226 90 321 90 83 0 93 12 43 53 -75 64 -213 84 -319 46z"/>
<path d="M21835 3356 c-59 -19 -143 -63 -200 -106 -41 -30 -52 -46 -63 -84
-17 -66 -15 -73 14 -45 l25 24 17 -23 17 -22 79 85 c43 48 108 108 144 136 60
45 63 49 36 48 -16 0 -47 -6 -69 -13z"/>
<path d="M22127 3351 c-17 -6 -17 -8 3 -26 12 -11 31 -37 42 -58 18 -36 20
-38 33 -20 8 10 15 26 15 35 0 14 9 17 57 15 48 -2 58 1 61 16 2 12 -7 22 -32
32 -36 15 -147 19 -179 6z"/>
<path d="M21963 3238 c-50 -52 -75 -101 -71 -136 3 -27 4 -26 38 18 29 37 40
44 63 42 28 -3 29 -2 29 48 0 85 -2 86 -59 28z"/>
<path d="M22315 3203 c-23 -13 -37 -14 -67 -6 -34 9 -38 8 -38 -9 0 -21 51
-78 70 -78 20 0 80 67 80 89 0 25 -5 25 -45 4z"/>
<path d="M22025 3085 c-16 -24 -45 -52 -63 -62 -42 -22 -44 -35 -10 -47 62
-22 113 31 106 111 l-3 42 -30 -44z"/>
<path d="M22190 3087 c0 -49 13 -67 50 -67 30 0 50 17 50 42 0 11 -7 18 -20
18 -12 0 -31 11 -44 25 -13 14 -26 25 -30 25 -3 0 -6 -19 -6 -43z"/>
<path d="M22077 3032 c-4 -21 -16 -47 -27 -57 -27 -25 -25 -45 4 -45 36 0 69
46 62 85 -4 16 -12 36 -20 43 -11 11 -14 7 -19 -26z"/>
<path d="M22156 2994 c-11 -30 -6 -82 9 -88 20 -7 34 22 28 56 -7 36 -28 55
-37 32z"/>
<path d="M19140 13181 c0 -85 2 -152 5 -150 9 10 35 152 35 192 -1 23 -9 58
-20 77 l-19 35 -1 -154z"/>
<path d="M18904 12861 c-78 -48 -214 -240 -320 -453 -63 -128 -71 -138 -96
-138 -31 0 -36 -11 -12 -31 9 -7 29 -40 46 -73 37 -75 74 -116 105 -116 107 0
260 297 348 673 27 113 27 118 10 137 -23 25 -41 25 -81 1z m17 -158 c5 -14 7
-40 4 -57 -15 -78 -40 -166 -47 -166 -4 0 -8 4 -8 10 0 5 -11 17 -25 26 -33
21 -78 6 -138 -46 -75 -66 -146 -202 -147 -279 -1 -34 -15 -10 -24 41 -8 45 5
78 80 204 75 125 133 200 197 251 61 50 93 55 108 16z m-97 -338 c13 -35 -35
-88 -64 -70 -14 9 -13 58 2 73 17 17 55 15 62 -3z"/>
<path d="M19573 12757 c-17 -7 -34 -15 -37 -18 -6 -6 78 -14 264 -24 94 -5 94
-5 60 11 -40 19 -168 44 -220 43 -19 0 -49 -6 -67 -12z"/>
<path d="M19610 12687 c0 -3 36 -25 80 -48 120 -62 207 -151 423 -429 230
-297 242 -312 234 -285 -30 102 -149 440 -167 475 -35 68 -98 158 -142 202
-67 67 -111 80 -280 86 -82 3 -148 2 -148 -1z"/>
<path d="M19524 12359 c-212 -71 -338 -332 -252 -520 43 -95 77 -125 176 -155
156 -47 284 -106 392 -182 l25 -17 -17 25 c-41 59 -42 57 25 70 77 15 127 40
175 88 47 47 71 97 84 176 30 182 -85 409 -246 485 -116 55 -253 66 -362 30z
m256 -35 c251 -97 336 -457 147 -619 -85 -73 -184 -115 -202 -86 -3 5 -49 24
-102 42 l-96 32 32 13 c56 24 100 65 127 121 63 127 13 317 -97 373 -85 44
-180 35 -246 -23 -32 -28 -35 -29 -24 -8 77 143 300 218 461 155z m-148 -389
c16 -35 -3 -75 -35 -75 -30 0 -47 18 -47 50 0 52 61 71 82 25z"/>
<path d="M18496 11857 c4 -10 26 -52 50 -94 118 -207 186 -503 203 -884 6
-119 15 -227 20 -241 27 -72 112 -86 249 -43 257 81 393 289 410 628 l7 127
67 -45 c37 -25 70 -45 73 -45 14 0 -54 107 -92 146 -54 53 -114 74 -212 74
-73 -1 -75 -1 -41 -13 77 -28 77 -35 -1 -30 -279 18 -486 134 -702 393 -20 25
-34 37 -31 27z m317 -335 c126 -76 275 -120 442 -131 l100 -6 -53 -33 c-99
-61 -236 -78 -372 -47 -94 22 -112 31 -141 73 -35 49 -169 283 -169 295 0 5
31 -20 69 -55 38 -34 94 -78 124 -96z m75 -689 c5 -10 12 -34 16 -53 l6 -35
-20 25 c-17 21 -20 22 -20 7 0 -10 14 -32 31 -49 29 -29 33 -30 97 -26 43 3
96 17 147 38 44 17 87 35 95 38 28 10 -35 -50 -86 -84 -73 -47 -166 -76 -247
-76 -80 -1 -104 15 -114 75 -8 50 2 81 38 122 35 40 44 42 57 18z"/>
<path d="M20088 7258 c33 -83 40 -185 17 -263 -24 -84 -49 -130 -115 -211
l-57 -70 51 -18 c28 -10 100 -40 159 -66 l109 -49 -7 27 c-13 51 -21 162 -18
239 5 121 46 237 109 312 14 18 25 33 23 35 -22 20 -262 126 -285 126 -8 0 -3
-21 14 -62z"/>
<path d="M18611 7051 c-8 -5 -63 -58 -122 -117 l-109 -108 59 -28 c112 -54
212 -200 272 -398 13 -41 24 -77 25 -79 2 -1 56 51 122 116 l120 119 -75 39
c-90 46 -176 123 -221 197 -36 60 -67 184 -58 236 2 17 4 32 3 32 -1 0 -8 -4
-16 -9z"/>
<path d="M19835 6653 c-45 -35 -226 -114 -310 -134 -113 -28 -295 -30 -399 -5
-38 9 -70 15 -72 13 -2 -1 10 -63 25 -137 16 -74 32 -152 35 -173 l7 -37 62
44 c202 143 454 190 680 127 37 -10 67 -14 67 -9 0 25 -64 328 -69 328 -3 0
-15 -8 -26 -17z"/>
<path d="M20131 6399 l-123 -101 65 -39 c187 -112 307 -335 307 -570 0 -63 2
-69 18 -60 29 16 213 173 219 187 3 7 -12 28 -33 46 -118 103 -243 332 -304
557 -11 41 -21 75 -23 77 -2 2 -59 -42 -126 -97z"/>
<path d="M18755 6188 c12 -70 14 -257 4 -338 -13 -103 -52 -236 -94 -320 l-35
-69 146 -46 c80 -25 152 -49 160 -52 11 -4 9 5 -6 39 -92 210 -57 463 92 666
22 30 36 58 32 62 -9 7 -285 100 -300 100 -3 0 -3 -19 1 -42z"/>
<path d="M20340 5489 c-78 -229 -264 -408 -498 -479 l-73 -22 43 -27 c24 -15
69 -42 101 -60 l59 -34 56 55 c32 29 111 105 177 169 66 63 174 164 240 224
66 59 120 112 120 116 0 7 -187 129 -197 129 -2 0 -14 -32 -28 -71z"/>
<path d="M18897 5207 c-42 -52 -77 -97 -77 -100 0 -3 12 -8 28 -12 92 -23 419
-158 595 -247 65 -32 122 -56 128 -53 5 4 39 43 75 88 l67 82 -124 6 c-272 13
-471 115 -599 308 -16 23 -16 23 -93 -72z"/>
<path d="M31268 5544 c-5 -4 -8 -55 -8 -114 l0 -107 33 -10 34 -10 46 94 c26
51 47 99 47 107 0 7 -12 18 -27 25 -34 16 -116 26 -125 15z"/>
<path d="M31175 5511 c-81 -38 -80 -37 -49 -119 23 -59 32 -72 50 -72 43 0 54
24 54 121 0 49 -3 89 -7 89 -5 0 -26 -9 -48 -19z"/>
<path d="M31405 5389 c-25 -50 -45 -98 -45 -108 0 -18 29 -51 44 -51 15 0 166
94 166 102 0 29 -90 148 -111 148 -5 0 -29 -41 -54 -91z"/>
<path d="M31032 5407 c-18 -18 -32 -38 -32 -45 0 -6 20 -33 45 -59 l44 -48 21
20 20 21 -26 64 c-14 36 -29 68 -33 73 -4 4 -21 -8 -39 -26z"/>
<path d="M31572 5403 c12 -21 22 -39 23 -41 1 -1 10 0 19 4 15 6 13 11 -15 40
-43 45 -53 43 -27 -3z"/>
<path d="M31623 5332 c-10 -6 -10 -20 -1 -65 l12 -57 38 0 c46 0 47 7 11 77
-26 52 -36 60 -60 45z"/>
<path d="M30956 5302 c-27 -52 -21 -66 35 -92 49 -24 52 -24 65 -6 16 23 9 38
-44 90 l-40 38 -16 -30z"/>
<path d="M30890 5278 c-21 -46 -25 -78 -11 -78 4 0 17 27 28 60 23 69 11 80
-17 18z"/>
<path d="M31203 5293 c-15 -3 -23 -12 -23 -24 0 -16 7 -19 50 -19 42 0 50 3
50 19 0 16 -31 34 -50 30 -3 -1 -15 -4 -27 -6z"/>
<path d="M31497 5244 c-61 -36 -77 -51 -77 -69 0 -13 3 -26 8 -28 4 -3 36 -1
72 4 115 17 108 12 99 66 -4 27 -8 54 -8 61 -1 19 -11 15 -94 -34z"/>
<path d="M31111 5225 c-27 -40 -50 -100 -51 -132 0 -21 5 -23 45 -23 25 0 45
5 45 10 0 22 50 60 78 60 33 0 82 -34 82 -56 0 -10 13 -14 45 -14 44 0 45 1
45 33 0 36 -38 125 -62 145 -13 10 -16 9 -21 -8 -5 -18 -13 -20 -86 -20 -74 0
-81 2 -81 20 0 29 -12 25 -39 -15z"/>
<path d="M30916 5159 c-4 -22 -4 -44 -1 -50 8 -12 115 -12 115 0 0 5 3 16 6
25 4 10 -9 22 -45 40 -28 14 -54 26 -59 26 -5 0 -12 -18 -16 -41z"/>
<path d="M31653 5174 c-9 -4 -13 -32 -13 -90 l0 -84 44 0 43 0 5 43 c3 23 2
62 -1 87 -6 41 -8 45 -36 47 -16 1 -36 0 -42 -3z"/>
<path d="M30857 5163 c-9 -8 -9 -126 -1 -147 13 -34 24 -1 24 75 0 73 -6 90
-23 72z"/>
<path d="M31498 5120 c-59 -10 -67 -15 -61 -39 4 -15 17 -20 61 -25 32 -4 69
-9 85 -12 26 -5 27 -4 27 40 0 45 0 46 -32 45 -18 -1 -54 -5 -80 -9z"/>
<path d="M31202 5098 c-21 -21 -13 -28 33 -28 47 0 58 12 26 30 -26 13 -44 13
-59 -2z"/>
<path d="M30914 5028 c4 -23 9 -44 12 -47 2 -2 26 4 52 15 38 16 48 25 50 47
3 27 3 27 -59 27 l-62 0 7 -42z"/>
<path d="M31060 5028 c0 -29 23 -94 46 -130 25 -39 44 -49 44 -24 0 17 31 26
97 26 41 0 55 -4 66 -21 15 -20 15 -20 40 13 27 37 47 89 47 124 0 21 -5 24
-37 24 -31 0 -43 -6 -66 -35 -22 -28 -35 -35 -63 -35 -34 0 -84 35 -84 60 0 5
-20 10 -45 10 -29 0 -45 -4 -45 -12z"/>
<path d="M31192 5028 c8 -23 35 -32 62 -20 40 18 31 32 -20 32 -31 0 -44 -4
-42 -12z"/>
<path d="M31440 5006 c0 -22 10 -31 71 -62 39 -19 75 -32 79 -27 4 4 10 27 13
50 6 47 16 41 -115 59 -47 6 -48 6 -48 -20z"/>
<path d="M30971 4959 c-34 -15 -42 -23 -36 -37 4 -9 12 -29 17 -44 5 -16 13
-28 17 -28 4 0 22 15 39 33 27 28 31 38 26 65 -7 37 -6 37 -63 11z"/>
<path d="M30870 4953 c1 -18 49 -115 50 -100 0 5 -7 33 -16 63 -15 52 -34 73
-34 37z"/>
<path d="M31636 4959 c-10 -30 -26 -95 -26 -106 0 -7 11 -13 25 -13 21 0 30
10 52 55 15 30 25 57 22 60 -3 2 -20 8 -37 11 -22 5 -33 2 -36 -7z"/>
<path d="M31424 4916 c-9 -37 1 -57 55 -110 l49 -49 26 51 c14 28 26 55 26 60
0 8 -130 72 -145 72 -2 0 -7 -11 -11 -24z"/>
<path d="M31015 4840 l-29 -30 36 -37 36 -36 15 28 c13 25 12 32 -2 66 -9 22
-19 39 -22 39 -3 0 -18 -14 -34 -30z"/>
<path d="M31180 4845 c0 -31 92 -33 98 -2 3 14 -4 17 -47 17 -38 0 -51 -4 -51
-15z"/>
<path d="M31375 4802 l-28 -42 20 -52 c11 -29 24 -53 30 -55 12 -4 95 56 99
72 2 6 -18 34 -45 64 l-48 55 -28 -42z"/>
<path d="M31155 4800 c-4 -6 -3 -16 3 -22 6 -6 12 -6 17 2 4 6 3 16 -3 22 -6
6 -12 6 -17 -2z"/>
<path d="M31291 4796 c-9 -10 -9 -16 -1 -21 16 -10 31 7 21 23 -6 10 -10 10
-20 -2z"/>
<path d="M31569 4768 c-20 -39 -20 -42 -3 -28 24 18 53 53 54 63 0 4 -7 7 -15
7 -8 0 -24 -19 -36 -42z"/>
<path d="M31215 4780 c-4 -6 -1 -17 5 -26 10 -11 16 -12 26 -3 11 9 11 15 3
25 -14 17 -25 18 -34 4z"/>
<path d="M31100 4750 c-17 -32 -11 -45 29 -68 51 -29 61 -28 61 6 -1 20 -11
34 -40 54 -38 26 -40 27 -50 8z"/>
<path d="M31270 4720 c-38 -15 -45 -22 -48 -47 -4 -35 13 -43 90 -43 l47 0
-16 48 c-9 26 -18 50 -22 53 -3 3 -26 -2 -51 -11z"/>
<path d="M16185 3522 c-53 -25 -93 -67 -119 -122 -29 -62 -30 -261 -3 -332 41
-106 156 -165 275 -140 70 15 119 53 152 118 23 45 25 60 25 184 0 131 -1 137
-30 190 -18 33 -47 66 -73 85 -37 25 -54 30 -115 33 -54 2 -82 -2 -112 -16z"/>
<path d="M12260 3144 c-63 -17 -87 -36 -107 -82 -31 -73 18 -150 101 -159 98
-11 193 25 230 88 10 16 20 61 23 99 l6 70 -99 -1 c-54 0 -124 -7 -154 -15z"/>
<path d="M13835 3543 c-66 -34 -110 -94 -129 -175 l-6 -28 225 0 c251 0 235
-6 210 77 -19 65 -48 101 -99 124 -52 23 -159 25 -201 2z"/>
<path d="M14985 3541 c-62 -28 -108 -90 -129 -173 l-6 -28 225 0 c252 0 236
-6 214 75 -15 54 -52 101 -99 125 -51 26 -149 27 -205 1z"/>
</g>
</svg>
